<svg width="264" height="264" viewBox="0 0 264 264" fill="none" xmlns="http://www.w3.org/2000/svg">
<path d="M132 209V55M132 209L109.483 231M132 209L154.517 231M132 55L109.483 33M132 55L154.517 33M63.756 170.5L200.244 93.5M63.756 170.5L33 162.448M63.756 170.5L55.506 200.552M200.244 93.5L208.483 63.448M200.244 93.5L231 101.552M231 162.448L200.244 170.5M200.244 170.5L208.494 200.552M200.244 170.5L63.756 93.5M55.517 63.448L63.756 93.5M63.756 93.5L33 101.552" stroke="white" stroke-opacity="0.2" stroke-width="2.5" stroke-linecap="round" stroke-linejoin="round"/>
</svg>
