<svg width="30" height="36" viewBox="0 0 30 36" fill="none" xmlns="http://www.w3.org/2000/svg">
<path d="M1.79266 23.8143C2.41107 23.8143 2.96755 24.3094 2.96755 24.9898C2.96755 25.6702 2.47304 26.1653 1.79266 26.1653C1.11227 26.1653 0.617188 25.6082 0.617188 24.9898C0.617188 24.3714 1.11227 23.8143 1.79266 23.8143Z" fill="#F9CCD1"/>
<path d="M21.8971 2.90682C22.5161 2.90682 23.0725 3.40192 23.0725 4.08231C23.0725 4.70073 22.5775 5.25781 21.8971 5.25781C21.2167 5.25781 20.7222 4.70073 20.7222 4.08231C20.7222 3.46389 21.2167 2.90682 21.8971 2.90682Z" fill="#F9CCD1"/>
<path d="M27.2784 19.1757C27.8974 19.1757 28.4539 19.6702 28.4539 20.3506C28.4539 21.031 27.9594 21.5261 27.2784 21.5261C26.5986 21.5261 26.1035 21.031 26.1035 20.3506C26.1035 19.6702 26.6606 19.1757 27.2784 19.1757Z" fill="#F9CCD1"/>
<path d="M21.4638 19.9799C21.8344 21.2787 21.7111 22.5769 21.0307 23.5671C20.3497 24.6187 19.1748 25.1758 17.876 25.2991C17.5048 24.0003 17.6288 22.7015 18.3086 21.7112C18.9896 20.7216 20.1024 20.1032 21.4638 19.9799Z" fill="#8EC155"/>
<path d="M17.6909 25.3611C18.124 28.3919 17.8768 31.6705 16.0828 34.6399L10.6392 33.0932C16.8246 30.8048 17.6295 25.3611 17.6909 25.3611Z" fill="#A88D68"/>
<path d="M6.55772 4.8868C8.47555 5.50522 9.83632 8.78385 11.4443 10.6391C9.032 11.2575 6.06259 13.0521 4.14537 12.433C2.04287 11.7526 0.92874 9.52619 1.54777 7.48441C2.22754 5.3819 4.4546 4.26838 6.55772 4.8868Z" fill="#F37D79"/>
<path d="M11.4434 10.6391C13.8557 10.0207 16.7011 8.10342 18.6184 8.72185C20.7221 9.40223 21.835 11.6287 21.2166 13.6698C20.5362 15.7736 18.3092 16.8865 16.268 16.2681C14.2888 15.6497 13.052 12.5569 11.4434 10.6391Z" fill="#F37D79"/>
<path d="M17.0719 5.75312C16.4535 7.67035 13.3608 9.03114 11.443 10.6392C10.8246 8.22682 8.90671 5.25802 9.52575 3.34017C10.2061 1.23704 12.4326 0.124123 14.4737 0.742546C16.5768 1.42293 17.6904 3.64938 17.0719 5.75312Z" fill="#FF99A7"/>
<path d="M11.4439 10.6391C12.063 13.052 13.8562 15.8969 13.2378 17.8147C12.5574 19.9179 10.3304 21.0308 8.28927 20.4124C6.18615 19.732 5.07322 17.5049 5.69164 15.4637C6.31006 13.5465 9.58807 12.2477 11.4439 10.6391Z" fill="#FF99A7"/>
<path d="M11.1332 11.6907C10.6381 12.0619 10.0816 12.4331 9.52518 12.7423C8.10183 13.6699 6.61835 14.5982 6.30853 15.5878C5.75146 17.3197 6.74167 19.2376 8.47361 19.794C8.78282 19.9179 9.15338 19.9799 9.4632 19.9799C10.9473 19.9799 12.1848 19.0517 12.6179 17.6289C12.9885 16.516 12.3706 14.9074 11.7522 13.3613C11.5044 12.8042 11.3191 12.2478 11.1332 11.6907ZM9.4632 21.1548C8.96871 21.1548 8.53557 21.0928 8.10182 20.9689C5.69011 20.2271 4.32935 17.6289 5.13366 15.2166C5.56619 13.7319 7.23616 12.6809 8.84418 11.6907C9.64849 11.1962 10.4534 10.7011 11.0099 10.1446C11.1945 10.0207 11.3804 9.95875 11.6283 10.0207C11.8136 10.0827 11.9995 10.268 12.0614 10.4539C12.2467 11.1962 12.6179 12.0619 12.9271 12.8662C13.6075 14.5982 14.3498 16.454 13.8547 17.9381C13.2363 19.9179 11.5044 21.1548 9.4632 21.1548Z" fill="black"/>
<path d="M5.3193 5.31986C3.83521 5.31986 2.59839 6.24748 2.16525 7.67023C1.91739 8.53589 1.97935 9.40218 2.41249 10.2059C2.84562 11.0102 3.52601 11.5673 4.39229 11.8765C4.57757 11.9385 4.82545 11.9998 5.07269 11.9998C6.12425 11.9998 7.485 11.5053 8.78381 10.9482C9.34026 10.763 9.89672 10.5157 10.4544 10.3298C10.0826 9.83471 9.77341 9.34022 9.40223 8.84573C8.41264 7.36102 7.42305 5.87631 6.37149 5.50513C6.00032 5.38181 5.69108 5.31986 5.3193 5.31986ZM5.01011 13.1753C4.63955 13.1753 4.26836 13.1133 3.95915 13.052C2.78366 12.6808 1.85605 11.8765 1.2996 10.8249C0.742529 9.7114 0.618597 8.47454 0.990385 7.36101C1.6088 5.44316 3.34072 4.14436 5.3193 4.14436C5.8144 4.14436 6.24756 4.20632 6.6807 4.32964C8.1654 4.82475 9.27831 6.49473 10.3299 8.16472C10.825 8.96904 11.3201 9.71139 11.8145 10.2679C11.9379 10.4537 12.0005 10.639 11.9379 10.8869C11.8765 11.0722 11.6906 11.2574 11.5053 11.3194C10.763 11.5053 9.89672 11.8145 9.09302 12.1237C7.79422 12.6188 6.30953 13.1753 5.01011 13.1753Z" fill="black"/>
<path d="M13.2985 1.23679C11.8138 1.23679 10.5769 2.16503 10.1438 3.58777C9.8346 4.63934 10.515 6.30933 11.1334 7.85539C11.3806 8.41246 11.6285 9.03088 11.8138 9.58734C12.2469 9.21678 12.7414 8.90696 13.2365 8.59775C14.6592 7.60815 16.1439 6.61854 16.5145 5.56697C17.0716 3.83502 16.082 1.9178 14.35 1.36073C13.9789 1.29876 13.6077 1.23679 13.2985 1.23679ZM11.4426 11.2573C11.3806 11.2573 11.3193 11.2573 11.2573 11.2573C11.0714 11.196 10.8861 11.0101 10.8242 10.8248C10.6383 10.0825 10.2677 9.15482 9.89594 8.3505C9.1536 6.55658 8.41185 4.7007 8.84438 3.21661C9.46341 1.29876 11.1947 -6.10352e-05 13.1745 -6.10352e-05C13.6696 -6.10352e-05 14.1028 0.0619049 14.5353 0.185222C16.9477 0.927574 18.2471 3.52581 17.5047 5.93815C17.0096 7.42286 15.3396 8.53577 13.731 9.6493C12.9886 10.1444 12.2469 10.6389 11.6898 11.134C11.7524 11.196 11.5665 11.2573 11.4426 11.2573Z" fill="black"/>
<path d="M12.4938 11.0104C12.8643 11.5055 13.1736 12 13.5454 12.557C14.4724 13.9178 15.4006 15.4025 16.4522 15.7117C16.7614 15.8351 17.1325 15.897 17.4418 15.897C18.9265 15.897 20.1633 14.9694 20.5964 13.5466C20.8437 12.681 20.7817 11.8147 20.3486 11.0104C19.9154 10.2061 19.2357 9.64959 18.3694 9.34038C18.1841 9.27841 17.9982 9.27841 17.751 9.27841C16.7614 9.27841 15.4626 9.83488 14.2251 10.33C13.6687 10.5159 13.0502 10.7631 12.4938 11.0104ZM17.3804 17.0725C16.8853 17.0725 16.4522 17.0105 16.019 16.8866C14.5343 16.3921 13.4828 14.7835 12.4938 13.2374C11.9987 12.4951 11.5036 11.7527 11.0091 11.1343C10.8851 10.9484 10.8232 10.7631 10.8851 10.5159C10.9465 10.33 11.1324 10.1447 11.3183 10.0827C12.122 9.89746 12.9877 9.52627 13.7926 9.1551C15.1534 8.59802 16.5755 7.97961 17.8129 7.97961C18.1841 7.97961 18.4933 8.04157 18.8025 8.10354C19.978 8.47471 20.9056 9.27842 21.4627 10.33C22.0192 11.4435 22.1425 12.681 21.7719 13.7939C21.1529 15.7737 19.4209 17.0725 17.3804 17.0725Z" fill="black"/>
<path d="M12.496 32.9692L15.8359 33.8974C16.7635 32.2268 17.1967 30.3096 17.258 28.2684C17.1967 28.3917 17.1347 28.5156 17.0108 28.7009C16.2065 29.9997 14.8463 31.6703 12.496 32.9692ZM16.0832 35.2576C16.0212 35.2576 15.9592 35.2576 15.8979 35.2576L10.5162 33.6495C10.2689 33.5876 10.083 33.3397 10.083 33.0931C10.083 32.8458 10.2069 32.598 10.5162 32.474C16.2684 30.3096 17.0728 25.299 17.0728 25.237V25.1757C16.1451 19.2375 12.5573 14.103 12.5573 14.103C12.372 13.8557 12.4334 13.4226 12.6806 13.2373C12.9285 13.052 13.3616 13.1133 13.5475 13.3612C13.7322 13.6085 17.4439 18.9276 18.3096 25.237C18.8047 28.8868 18.2482 32.1648 16.6402 34.949C16.5157 35.1343 16.2684 35.2576 16.0832 35.2576Z" fill="black"/>
<path d="M11.4441 11.2573C11.2588 11.2573 11.1349 11.196 11.0116 11.072C10.7637 10.8248 10.7637 10.4536 11.0116 10.2058C12.6809 8.53578 12.3104 5.81422 12.3104 5.75287C12.2484 5.44304 12.4963 5.07188 12.8669 5.07188C13.1761 5.01053 13.4853 5.25776 13.5479 5.62894C13.5479 5.75287 13.9804 8.96891 11.8773 11.134C11.7539 11.196 11.63 11.2573 11.4441 11.2573Z" fill="black"/>
<path d="M15.589 12.8042C14.5368 12.8042 12.5576 12.5569 11.0116 11.0722C10.7637 10.825 10.7637 10.4538 11.0116 10.206C11.2588 9.95871 11.63 9.95871 11.8773 10.206C13.5479 11.8766 16.1455 11.5054 16.1455 11.5054C16.4547 11.4434 16.8252 11.6907 16.8252 12.0618C16.8878 12.3711 16.6406 12.7422 16.3314 12.7422C16.3314 12.7422 16.0215 12.8042 15.589 12.8042Z" fill="black"/>
<path d="M9.4019 15.7117C9.21662 15.7117 9.03073 15.6497 8.90681 15.5258C8.65956 15.2785 8.7215 14.9074 8.96935 14.6601C8.96935 14.6601 10.7627 13.0521 10.8246 10.7011C10.8246 10.3299 11.1338 10.0827 11.4431 10.0827C11.8142 10.0827 12.0621 10.3919 12.0621 10.7011C12.0621 13.6699 9.89638 15.5258 9.77306 15.5877C9.64913 15.6497 9.52583 15.7117 9.4019 15.7117Z" fill="black"/>
<path d="M11.0718 11.2573C10.1441 11.2573 7.66984 11.072 5.99986 9.40206C5.752 9.15481 5.752 8.78364 5.99986 8.53578C6.2471 8.28853 6.61891 8.28853 6.86555 8.53578C8.53614 10.2058 11.3196 10.0205 11.381 10.0205C11.6902 10.0205 12 10.2677 12.062 10.5769C12.062 10.8868 11.8141 11.196 11.5049 11.2573C11.4429 11.2573 11.3196 11.2573 11.0718 11.2573Z" fill="black"/>
<path d="M20.9682 20.7217C20.0399 20.9076 19.2362 21.4021 18.7411 22.1444C18.2466 22.8248 18.1227 23.7524 18.2466 24.6807C19.1743 24.4948 19.9786 24.0003 20.4737 23.2579C20.9682 22.5769 21.1535 21.6499 20.9682 20.7217ZM17.8754 25.9795C17.6282 25.9795 17.381 25.7942 17.2564 25.5463C16.8233 24.0616 17.0092 22.5769 17.7515 21.4021C18.5558 20.2272 19.7927 19.5468 21.4007 19.3609C21.7105 19.3609 21.9571 19.5468 22.0817 19.794C22.5148 21.2787 22.3289 22.7628 21.5866 23.9383C20.7823 25.1132 19.4835 25.7942 17.8754 25.9795Z" fill="black"/>
<path d="M1.79389 24.4335C1.48407 24.4335 1.23745 24.6808 1.23745 24.99C1.23745 25.2992 1.48407 25.5464 1.79389 25.5464C2.1031 25.5464 2.35097 25.2992 2.35097 24.99C2.35097 24.6808 2.1031 24.4335 1.79389 24.4335ZM1.79389 26.7219C0.804298 26.7219 0 25.9176 0 24.9286C0 23.9384 0.804298 23.1347 1.79389 23.1347C2.7841 23.1347 3.58781 23.9384 3.58781 24.9286C3.58781 25.9176 2.7841 26.7219 1.79389 26.7219Z" fill="black"/>
<path d="M27.2772 19.7939C26.968 19.7939 26.7207 20.0411 26.7207 20.3503C26.7207 20.6595 26.968 20.9074 27.2772 20.9074C27.5864 20.9074 27.8342 20.6595 27.8342 20.3503C27.8342 20.0411 27.5864 19.7939 27.2772 19.7939ZM27.2772 22.0823C26.2876 22.0823 25.4839 21.2786 25.4839 20.2884C25.4839 19.2988 26.2876 18.4951 27.2772 18.4951C28.2674 18.4951 29.0711 19.2988 29.0711 20.2884C29.0711 21.2786 28.2674 22.0823 27.2772 22.0823Z" fill="black"/>
<path d="M21.8965 3.52584C21.5873 3.52584 21.34 3.77309 21.34 4.0823C21.34 4.39152 21.5873 4.63938 21.8965 4.63938C22.2057 4.63938 22.4529 4.39152 22.4529 4.0823C22.4529 3.77309 22.2057 3.52584 21.8965 3.52584ZM21.8965 5.87622C20.9069 5.87622 20.1025 5.0719 20.1025 4.0823C20.1025 3.0927 20.9069 2.28839 21.8965 2.28839C22.8861 2.28839 23.6904 3.0927 23.6904 4.0823C23.6904 5.0719 22.8861 5.87622 21.8965 5.87622Z" fill="black"/>
<path d="M28.4531 36H6.80348C6.43292 36 6.18506 35.7528 6.18506 35.3822C6.18506 35.0104 6.43292 34.7632 6.80348 34.7632H28.4531C28.8242 34.7632 29.0715 35.0104 29.0715 35.3822C29.0715 35.7528 28.8242 36 28.4531 36Z" fill="black"/>
</svg>
