<svg width="34" height="32" viewBox="0 0 34 32" fill="none" xmlns="http://www.w3.org/2000/svg">
<path d="M19.2061 28.8522C19.4704 28.5899 19.8684 28.5899 20.0664 28.8522C20.332 29.1145 20.332 29.5079 20.0664 29.7046C19.8015 29.9669 19.4048 29.9669 19.2061 29.7046C19.0067 29.5079 19.0067 29.1145 19.2061 28.8522Z" fill="#0F2453"/>
<path d="M7.28508 14.9508C7.55 15.2131 7.55 15.6066 7.28508 15.8033C7.02016 16.0656 6.62278 16.0656 6.42409 15.8033C6.15917 15.541 6.15917 15.1475 6.42409 14.9508C6.68901 14.7541 7.02016 14.6885 7.28508 14.9508Z" fill="#0F2453"/>
<path d="M30.2649 31.4756C30.1324 31.4756 30.0662 31.41 30.0006 31.3444L27.3514 28.7215C27.219 28.5904 27.219 28.3281 27.3514 28.1313C27.4839 28.0002 27.7481 28.0002 27.9475 28.1313L30.2649 30.4264L32.0538 28.6559L29.7357 26.3609C29.6026 26.2297 29.6026 25.9674 29.7357 25.7707C29.8682 25.6396 30.1324 25.6396 30.3318 25.7707L32.9803 28.3936C33.1128 28.5248 33.1128 28.7871 32.9803 28.9838L30.6629 31.2789C30.4642 31.41 30.3318 31.4756 30.2649 31.4756Z" fill="#0F2453"/>
<path d="M15.2977 12.0654C15.1653 12.0654 15.0991 11.9999 15.0328 11.9343L13.2446 10.1638C13.1121 10.0327 13.1121 9.77036 13.2446 9.57364C13.3771 9.44249 13.642 9.44249 13.8407 9.57364L15.6289 11.3441C15.7613 11.4753 15.7613 11.7376 15.6289 11.9343C15.4964 11.9999 15.4302 12.0654 15.2977 12.0654Z" fill="#0F2453"/>
<path d="M12.9804 14.3604C12.848 14.3604 12.7817 14.2948 12.7162 14.2292L10.9273 12.4587C10.7955 12.3276 10.7955 12.0653 10.9273 11.8686C11.0597 11.7374 11.3247 11.7374 11.5233 11.8686L13.3116 13.639C13.444 13.7702 13.444 14.0325 13.3116 14.2292C13.1798 14.2948 13.0467 14.3604 12.9804 14.3604Z" fill="#0F2453"/>
<path d="M4.7679 6.22949C4.63544 6.22949 4.56921 6.16392 4.50298 6.09835L1.85378 3.47541C1.45706 3.08197 1.25836 2.55738 1.25836 2.0328C1.25836 1.50821 1.45706 0.983622 1.85378 0.590181C2.25182 0.196741 2.78099 2.09808e-05 3.31083 2.09808e-05C3.84067 2.09808e-05 4.37052 0.196741 4.7679 0.590181L7.41646 3.21312C7.54958 3.34426 7.54958 3.60656 7.41646 3.80328C7.28466 3.93442 7.01973 3.93442 6.82104 3.80328L4.17184 1.18034C3.90692 0.918048 3.64198 0.852475 3.31083 0.852475C2.97968 0.852475 2.64853 0.983622 2.44984 1.18034C2.18492 1.44264 2.11871 1.70493 2.11871 2.0328C2.11871 2.36066 2.25181 2.68853 2.44984 2.88525L5.09904 5.50819C5.2315 5.63933 5.2315 5.90163 5.09904 6.09835C4.96658 6.22949 4.90036 6.22949 4.7679 6.22949Z" fill="#0F2453"/>
<path d="M21.1918 22.4922C21.0593 22.4922 20.9938 22.4266 20.9269 22.361L19.1387 20.5906C19.0062 20.4594 19.0062 20.1971 19.1387 20.0004L21.4574 17.7053C21.5898 17.5742 21.8541 17.5742 22.0534 17.7053L23.841 19.4758C23.9734 19.607 23.9734 19.8693 23.841 20.066C23.7085 20.1971 23.4436 20.1971 23.2449 20.066L21.7878 18.6234L20.0003 20.3938L21.4574 21.8365C21.5898 21.9676 21.5898 22.2299 21.4574 22.4266C21.3905 22.4266 21.2587 22.4922 21.1918 22.4922Z" fill="#0F2453"/>
<path d="M9.13845 2.62372C8.74173 2.62372 8.41057 2.75487 8.14565 3.01716L4.30433 6.82042C4.03941 7.08271 3.90694 7.41058 3.90694 7.80402C3.90694 8.19746 4.03941 8.52533 4.30433 8.78762L8.14565 12.5909C8.41057 12.8532 8.74173 12.9843 9.13845 12.9843C9.53649 12.9843 9.86763 12.8532 10.1319 12.5909L13.9732 8.78762C14.2382 8.52533 14.3706 8.19746 14.3706 7.80402C14.3706 7.41058 14.2382 7.08271 13.9732 6.82042L10.1319 3.01716C9.93321 2.82044 9.53649 2.62372 9.13845 2.62372ZM9.13845 13.9023C8.54238 13.9023 7.94697 13.6401 7.54959 13.2466L3.70823 9.44335C3.31085 9.04991 3.04596 8.45975 3.04596 7.86959C3.04596 7.27943 3.31085 6.68927 3.70823 6.29583L7.54959 2.49258C7.94697 2.09914 8.54238 1.83684 9.13845 1.83684C9.73518 1.83684 10.3313 2.09914 10.728 2.49258L14.5693 6.29583C14.9667 6.68927 15.2316 7.27943 15.2316 7.86959C15.2316 8.45975 14.9667 9.04991 14.5693 9.44335L10.728 13.2466C10.3313 13.6401 9.73518 13.9023 9.13845 13.9023Z" fill="#0F2453"/>
<path d="M4.50331 10.0332C4.37085 10.0332 4.30461 9.96763 4.23838 9.90206C4.10592 9.77091 4.10592 9.50862 4.23838 9.3119L10.6627 2.95128C10.7952 2.82013 11.0594 2.82013 11.2588 2.95128C11.3906 3.08243 11.3906 3.34472 11.2588 3.54144L4.83444 9.90206C4.70198 9.96763 4.56954 10.0332 4.50331 10.0332Z" fill="#0F2453"/>
<path d="M17.3515 10.7536C16.9535 10.7536 16.623 10.8848 16.3581 11.147L12.5167 14.9503C11.9869 15.4749 11.9869 16.3929 12.5167 16.9175L16.3581 20.7208C16.623 20.9831 16.9535 21.1142 17.3515 21.1142C17.7483 21.1142 18.0794 20.9831 18.345 20.7208L22.1857 16.9175C22.7162 16.3929 22.7162 15.4749 22.1857 14.9503L18.345 11.147C18.0794 10.8848 17.7483 10.7536 17.3515 10.7536ZM17.3515 22.0322C16.7555 22.0322 16.1594 21.7699 15.762 21.3765L11.9213 17.5732C11.0597 16.7208 11.0597 15.2782 11.9213 14.4257L15.762 10.6225C16.1594 10.229 16.7555 9.96672 17.3515 9.96672C17.9476 9.96672 18.543 10.229 18.941 10.6225L22.7818 14.4257C23.6427 15.2782 23.6427 16.7208 22.7818 17.5732L18.941 21.3765C18.543 21.7699 17.9476 22.0322 17.3515 22.0322Z" fill="#0F2453"/>
<path d="M12.6492 18.0977C12.5168 18.0977 12.4505 18.0321 12.3849 17.9665C12.2525 17.8354 12.2525 17.5731 12.3849 17.3763L18.8086 11.0157C18.9411 10.8846 19.206 10.8846 19.4047 11.0157C19.5371 11.1469 19.5371 11.4092 19.4047 11.6059L12.9803 17.9665C12.9141 18.0977 12.7817 18.0977 12.6492 18.0977Z" fill="#0F2453"/>
<path d="M25.5628 18.8856C25.1654 18.8856 24.8342 19.0167 24.5693 19.279L20.728 23.0823C20.4637 23.3446 20.3312 23.6724 20.3312 24.0659C20.3312 24.4593 20.4637 24.7872 20.728 25.0495L24.5693 28.8527C24.8342 29.115 25.1654 29.2462 25.5628 29.2462C25.9601 29.2462 26.2913 29.115 26.5562 28.8527L30.3969 25.0495C30.6625 24.7872 30.795 24.4593 30.795 24.0659C30.795 23.6724 30.6625 23.3446 30.3969 23.0823L26.5562 19.279C26.2913 19.0167 25.9601 18.8856 25.5628 18.8856ZM25.5628 30.0986C24.9667 30.0986 24.3706 29.8363 23.9732 29.4429L20.1319 25.6396C19.7352 25.2462 19.4696 24.656 19.4696 24.0659C19.4696 23.4757 19.7352 22.8856 20.1319 22.4921L23.9732 18.6889C24.3706 18.2954 24.9667 18.0331 25.5628 18.0331C26.1588 18.0331 26.7549 18.2954 27.1523 18.6889L30.9936 22.4921C31.3904 22.8856 31.6553 23.4757 31.6553 24.0659C31.6553 24.656 31.3904 25.2462 30.9936 25.6396L27.1523 29.4429C26.6887 29.9019 26.1588 30.0986 25.5628 30.0986Z" fill="#0F2453"/>
<path d="M20.8612 26.2295C20.7288 26.2295 20.6632 26.1639 20.5963 26.0983C20.4645 25.9672 20.4645 25.7049 20.5963 25.5082L27.0206 19.1476C27.1531 19.0164 27.4173 19.0164 27.616 19.1476C27.7485 19.2787 27.7485 19.541 27.616 19.7377L21.1924 26.0983C21.0599 26.2295 20.9943 26.2295 20.8612 26.2295Z" fill="#0F2453"/>
<path d="M29.8009 2.49149C28.2114 2.49149 26.8874 3.80296 26.8874 5.37672C26.8874 6.95048 28.2114 8.26195 29.8009 8.26195C31.3905 8.26195 32.7157 6.95048 32.7157 5.37672C32.7157 3.73738 31.3905 2.49149 29.8009 2.49149ZM29.8009 9.04883C27.7478 9.04883 26.0927 7.40949 26.0927 5.37672C26.0927 3.34394 27.7478 1.70461 29.8009 1.70461C31.8541 1.70461 33.5098 3.34394 33.5098 5.37672C33.5098 7.40949 31.8541 9.04883 29.8009 9.04883Z" fill="#0F2453"/>
<path d="M2.5161 15.9999C1.58953 15.9999 0.860343 16.7212 0.860343 17.6392C0.860343 18.5572 1.58953 19.2785 2.5161 19.2785C3.44332 19.2785 4.17185 18.5572 4.17185 17.6392C4.17185 16.7212 3.37709 15.9999 2.5161 15.9999ZM2.5161 20.0654C1.12592 20.0654 0 18.9507 0 17.5736C0 16.1966 1.12592 15.0819 2.5161 15.0819C3.90693 15.0819 5.03283 16.1966 5.03283 17.5736C5.03283 18.9507 3.8407 20.0654 2.5161 20.0654Z" fill="#0F2453"/>
<path d="M8.80826 27.6066C8.60957 27.8033 8.41088 28 8.21153 28.1967C7.61546 28.7213 7.28497 29.0492 7.28497 29.7049C7.28497 30.5574 7.94727 31.2131 8.80826 31.2131C9.6686 31.2131 10.3316 30.5574 10.3316 29.7049C10.3316 29.1148 10.0004 28.7869 9.40436 28.1967C9.20567 28 9.0063 27.8033 8.80826 27.6066ZM8.80826 32C7.54989 32 6.48956 30.9508 6.48956 29.7049C6.48956 28.7213 7.08629 28.1312 7.68236 27.6066C7.94728 27.3443 8.27844 27.082 8.47713 26.7541C8.5427 26.623 8.67515 26.5574 8.80826 26.5574C8.94072 26.5574 9.07319 26.623 9.13876 26.7541C9.40434 27.082 9.66861 27.3443 9.93353 27.6066C10.5303 28.1312 11.1263 28.7213 11.1263 29.7049C11.1263 30.9508 10.066 32 8.80826 32Z" fill="#0F2453"/>
<path d="M4.83421 23.6722C4.17191 24.5246 3.90701 25.3771 3.90701 26.3607C3.90701 29.0492 6.09259 31.2131 8.80802 31.2131C11.5228 31.2131 13.7084 29.0492 13.7084 26.3607C13.7084 24.3279 12.45 23.1476 10.9267 21.7706C10.1989 21.1148 9.46967 20.4591 8.80802 19.6722C8.01326 20.8525 7.68212 22.2951 7.94704 23.6722C8.07884 24.1968 8.21131 24.6558 8.34442 25.1804C8.41065 25.3115 8.34441 25.4427 8.27818 25.5082C8.21129 25.6394 8.07886 25.705 8.01329 25.705C7.88017 25.705 7.74769 25.705 7.54966 25.705C6.75489 25.6394 5.62897 25.3115 4.83421 23.6722ZM8.80802 32C5.62898 32 3.11224 29.4426 3.11224 26.3607C3.11224 24.9836 3.57585 23.8033 4.63553 22.623C4.70176 22.4919 4.90046 22.4919 5.03292 22.4919C5.16538 22.4919 5.29783 22.623 5.36406 22.7542C5.82767 24.0656 6.55622 24.7869 7.48344 24.8525C7.35098 24.5246 7.28475 24.1312 7.21852 23.8033C6.88737 22.0984 7.28474 20.3279 8.34442 18.9509C8.41065 18.8853 8.47689 18.8198 8.47689 18.7542C8.54246 18.623 8.67491 18.5575 8.80802 18.5575C8.94048 18.5575 9.07295 18.623 9.13852 18.7542C9.86771 19.6722 10.6625 20.4591 11.4572 21.1804C13.0461 22.623 14.5032 24 14.5032 26.3607C14.5032 29.4426 11.9208 32 8.80802 32Z" fill="#0F2453"/>
<path d="M12.4505 27.4102C12.2525 27.4102 12.0538 27.2134 12.0538 27.0167C12.0538 24.9839 10.7954 23.8036 9.27213 22.4266C9.13902 22.2954 8.94096 22.1643 8.8085 22.0331C8.60981 21.902 8.60981 21.6397 8.8085 21.443C8.94096 21.2463 9.20591 21.2463 9.4046 21.443C9.53706 21.5741 9.66885 21.7053 9.86819 21.8364C11.4577 23.279 12.9141 24.6561 12.9141 27.0167C12.8479 27.2134 12.6492 27.4102 12.4505 27.4102Z" fill="#0F2453"/>
<path d="M19.2061 28.8522C19.4704 28.5899 19.8684 28.5899 20.0664 28.8522C20.332 29.1145 20.332 29.5079 20.0664 29.7046C19.8015 29.9669 19.4048 29.9669 19.2061 29.7046C19.0067 29.5079 19.0067 29.1145 19.2061 28.8522Z" fill="#0F2453"/>
<path d="M7.28508 14.9508C7.55 15.2131 7.55 15.6066 7.28508 15.8033C7.02016 16.0656 6.62278 16.0656 6.42409 15.8033C6.15917 15.541 6.15917 15.1475 6.42409 14.9508C6.68901 14.7541 7.02016 14.6885 7.28508 14.9508Z" fill="#0F2453"/>
<path d="M30.2649 31.4756C30.1324 31.4756 30.0662 31.41 30.0006 31.3444L27.3514 28.7215C27.219 28.5904 27.219 28.3281 27.3514 28.1313C27.4839 28.0002 27.7481 28.0002 27.9475 28.1313L30.2649 30.4264L32.0538 28.6559L29.7357 26.3609C29.6026 26.2297 29.6026 25.9674 29.7357 25.7707C29.8682 25.6396 30.1324 25.6396 30.3318 25.7707L32.9803 28.3936C33.1128 28.5248 33.1128 28.7871 32.9803 28.9838L30.6629 31.2789C30.4642 31.41 30.3318 31.4756 30.2649 31.4756Z" fill="#0F2453"/>
<path d="M15.2977 12.0654C15.1653 12.0654 15.0991 11.9999 15.0328 11.9343L13.2446 10.1638C13.1121 10.0327 13.1121 9.77036 13.2446 9.57364C13.3771 9.44249 13.642 9.44249 13.8407 9.57364L15.6289 11.3441C15.7613 11.4753 15.7613 11.7376 15.6289 11.9343C15.4964 11.9999 15.4302 12.0654 15.2977 12.0654Z" fill="#0F2453"/>
<path d="M12.9804 14.3604C12.848 14.3604 12.7817 14.2948 12.7162 14.2292L10.9273 12.4587C10.7955 12.3276 10.7955 12.0653 10.9273 11.8686C11.0597 11.7374 11.3247 11.7374 11.5233 11.8686L13.3116 13.639C13.444 13.7702 13.444 14.0325 13.3116 14.2292C13.1798 14.2948 13.0467 14.3604 12.9804 14.3604Z" fill="#0F2453"/>
<path d="M4.7679 6.22949C4.63544 6.22949 4.56921 6.16392 4.50298 6.09835L1.85378 3.47541C1.45706 3.08197 1.25836 2.55738 1.25836 2.0328C1.25836 1.50821 1.45706 0.983622 1.85378 0.590181C2.25182 0.196741 2.78099 2.09808e-05 3.31083 2.09808e-05C3.84067 2.09808e-05 4.37052 0.196741 4.7679 0.590181L7.41646 3.21312C7.54958 3.34426 7.54958 3.60656 7.41646 3.80328C7.28466 3.93442 7.01973 3.93442 6.82104 3.80328L4.17184 1.18034C3.90692 0.918048 3.64198 0.852475 3.31083 0.852475C2.97968 0.852475 2.64853 0.983622 2.44984 1.18034C2.18492 1.44264 2.11871 1.70493 2.11871 2.0328C2.11871 2.36066 2.25181 2.68853 2.44984 2.88525L5.09904 5.50819C5.2315 5.63933 5.2315 5.90163 5.09904 6.09835C4.96658 6.22949 4.90036 6.22949 4.7679 6.22949Z" fill="#0F2453"/>
<path d="M21.1918 22.4922C21.0593 22.4922 20.9938 22.4266 20.9269 22.361L19.1387 20.5906C19.0062 20.4594 19.0062 20.1971 19.1387 20.0004L21.4574 17.7053C21.5898 17.5742 21.8541 17.5742 22.0534 17.7053L23.841 19.4758C23.9734 19.607 23.9734 19.8693 23.841 20.066C23.7085 20.1971 23.4436 20.1971 23.2449 20.066L21.7878 18.6234L20.0003 20.3938L21.4574 21.8365C21.5898 21.9676 21.5898 22.2299 21.4574 22.4266C21.3905 22.4266 21.2587 22.4922 21.1918 22.4922Z" fill="#0F2453"/>
<path d="M9.13845 2.62372C8.74173 2.62372 8.41057 2.75487 8.14565 3.01716L4.30433 6.82042C4.03941 7.08271 3.90694 7.41058 3.90694 7.80402C3.90694 8.19746 4.03941 8.52533 4.30433 8.78762L8.14565 12.5909C8.41057 12.8532 8.74173 12.9843 9.13845 12.9843C9.53649 12.9843 9.86763 12.8532 10.1319 12.5909L13.9732 8.78762C14.2382 8.52533 14.3706 8.19746 14.3706 7.80402C14.3706 7.41058 14.2382 7.08271 13.9732 6.82042L10.1319 3.01716C9.93321 2.82044 9.53649 2.62372 9.13845 2.62372ZM9.13845 13.9023C8.54238 13.9023 7.94697 13.6401 7.54959 13.2466L3.70823 9.44335C3.31085 9.04991 3.04596 8.45975 3.04596 7.86959C3.04596 7.27943 3.31085 6.68927 3.70823 6.29583L7.54959 2.49258C7.94697 2.09914 8.54238 1.83684 9.13845 1.83684C9.73518 1.83684 10.3313 2.09914 10.728 2.49258L14.5693 6.29583C14.9667 6.68927 15.2316 7.27943 15.2316 7.86959C15.2316 8.45975 14.9667 9.04991 14.5693 9.44335L10.728 13.2466C10.3313 13.6401 9.73518 13.9023 9.13845 13.9023Z" fill="#0F2453"/>
<path d="M4.50331 10.0332C4.37085 10.0332 4.30461 9.96763 4.23838 9.90206C4.10592 9.77091 4.10592 9.50862 4.23838 9.3119L10.6627 2.95128C10.7952 2.82013 11.0594 2.82013 11.2588 2.95128C11.3906 3.08243 11.3906 3.34472 11.2588 3.54144L4.83444 9.90206C4.70198 9.96763 4.56954 10.0332 4.50331 10.0332Z" fill="#0F2453"/>
<path d="M17.3515 10.7536C16.9535 10.7536 16.623 10.8848 16.3581 11.147L12.5167 14.9503C11.9869 15.4749 11.9869 16.3929 12.5167 16.9175L16.3581 20.7208C16.623 20.9831 16.9535 21.1142 17.3515 21.1142C17.7483 21.1142 18.0794 20.9831 18.345 20.7208L22.1857 16.9175C22.7162 16.3929 22.7162 15.4749 22.1857 14.9503L18.345 11.147C18.0794 10.8848 17.7483 10.7536 17.3515 10.7536ZM17.3515 22.0322C16.7555 22.0322 16.1594 21.7699 15.762 21.3765L11.9213 17.5732C11.0597 16.7208 11.0597 15.2782 11.9213 14.4257L15.762 10.6225C16.1594 10.229 16.7555 9.96672 17.3515 9.96672C17.9476 9.96672 18.543 10.229 18.941 10.6225L22.7818 14.4257C23.6427 15.2782 23.6427 16.7208 22.7818 17.5732L18.941 21.3765C18.543 21.7699 17.9476 22.0322 17.3515 22.0322Z" fill="#0F2453"/>
<path d="M12.6492 18.0977C12.5168 18.0977 12.4505 18.0321 12.3849 17.9665C12.2525 17.8354 12.2525 17.5731 12.3849 17.3763L18.8086 11.0157C18.9411 10.8846 19.206 10.8846 19.4047 11.0157C19.5371 11.1469 19.5371 11.4092 19.4047 11.6059L12.9803 17.9665C12.9141 18.0977 12.7817 18.0977 12.6492 18.0977Z" fill="#0F2453"/>
<path d="M25.5628 18.8856C25.1654 18.8856 24.8342 19.0167 24.5693 19.279L20.728 23.0823C20.4637 23.3446 20.3312 23.6724 20.3312 24.0659C20.3312 24.4593 20.4637 24.7872 20.728 25.0495L24.5693 28.8527C24.8342 29.115 25.1654 29.2462 25.5628 29.2462C25.9601 29.2462 26.2913 29.115 26.5562 28.8527L30.3969 25.0495C30.6625 24.7872 30.795 24.4593 30.795 24.0659C30.795 23.6724 30.6625 23.3446 30.3969 23.0823L26.5562 19.279C26.2913 19.0167 25.9601 18.8856 25.5628 18.8856ZM25.5628 30.0986C24.9667 30.0986 24.3706 29.8363 23.9732 29.4429L20.1319 25.6396C19.7352 25.2462 19.4696 24.656 19.4696 24.0659C19.4696 23.4757 19.7352 22.8856 20.1319 22.4921L23.9732 18.6889C24.3706 18.2954 24.9667 18.0331 25.5628 18.0331C26.1588 18.0331 26.7549 18.2954 27.1523 18.6889L30.9936 22.4921C31.3904 22.8856 31.6553 23.4757 31.6553 24.0659C31.6553 24.656 31.3904 25.2462 30.9936 25.6396L27.1523 29.4429C26.6887 29.9019 26.1588 30.0986 25.5628 30.0986Z" fill="#0F2453"/>
<path d="M20.8612 26.2295C20.7288 26.2295 20.6632 26.1639 20.5963 26.0983C20.4645 25.9672 20.4645 25.7049 20.5963 25.5082L27.0206 19.1476C27.1531 19.0164 27.4173 19.0164 27.616 19.1476C27.7485 19.2787 27.7485 19.541 27.616 19.7377L21.1924 26.0983C21.0599 26.2295 20.9943 26.2295 20.8612 26.2295Z" fill="#0F2453"/>
<path d="M29.8009 2.49149C28.2114 2.49149 26.8874 3.80296 26.8874 5.37672C26.8874 6.95048 28.2114 8.26195 29.8009 8.26195C31.3905 8.26195 32.7157 6.95048 32.7157 5.37672C32.7157 3.73738 31.3905 2.49149 29.8009 2.49149ZM29.8009 9.04883C27.7478 9.04883 26.0927 7.40949 26.0927 5.37672C26.0927 3.34394 27.7478 1.70461 29.8009 1.70461C31.8541 1.70461 33.5098 3.34394 33.5098 5.37672C33.5098 7.40949 31.8541 9.04883 29.8009 9.04883Z" fill="#0F2453"/>
<path d="M2.5161 15.9999C1.58953 15.9999 0.860343 16.7212 0.860343 17.6392C0.860343 18.5572 1.58953 19.2785 2.5161 19.2785C3.44332 19.2785 4.17185 18.5572 4.17185 17.6392C4.17185 16.7212 3.37709 15.9999 2.5161 15.9999ZM2.5161 20.0654C1.12592 20.0654 0 18.9507 0 17.5736C0 16.1966 1.12592 15.0819 2.5161 15.0819C3.90693 15.0819 5.03283 16.1966 5.03283 17.5736C5.03283 18.9507 3.8407 20.0654 2.5161 20.0654Z" fill="#0F2453"/>
<path d="M8.80826 27.6066C8.60957 27.8033 8.41088 28 8.21153 28.1967C7.61546 28.7213 7.28497 29.0492 7.28497 29.7049C7.28497 30.5574 7.94727 31.2131 8.80826 31.2131C9.6686 31.2131 10.3316 30.5574 10.3316 29.7049C10.3316 29.1148 10.0004 28.7869 9.40436 28.1967C9.20567 28 9.0063 27.8033 8.80826 27.6066ZM8.80826 32C7.54989 32 6.48956 30.9508 6.48956 29.7049C6.48956 28.7213 7.08629 28.1312 7.68236 27.6066C7.94728 27.3443 8.27844 27.082 8.47713 26.7541C8.5427 26.623 8.67515 26.5574 8.80826 26.5574C8.94072 26.5574 9.07319 26.623 9.13876 26.7541C9.40434 27.082 9.66861 27.3443 9.93353 27.6066C10.5303 28.1312 11.1263 28.7213 11.1263 29.7049C11.1263 30.9508 10.066 32 8.80826 32Z" fill="#0F2453"/>
<path d="M4.83421 23.6722C4.17191 24.5246 3.90701 25.3771 3.90701 26.3607C3.90701 29.0492 6.09259 31.2131 8.80802 31.2131C11.5228 31.2131 13.7084 29.0492 13.7084 26.3607C13.7084 24.3279 12.45 23.1476 10.9267 21.7706C10.1989 21.1148 9.46967 20.4591 8.80802 19.6722C8.01326 20.8525 7.68212 22.2951 7.94704 23.6722C8.07884 24.1968 8.21131 24.6558 8.34442 25.1804C8.41065 25.3115 8.34441 25.4427 8.27818 25.5082C8.21129 25.6394 8.07886 25.705 8.01329 25.705C7.88017 25.705 7.74769 25.705 7.54966 25.705C6.75489 25.6394 5.62897 25.3115 4.83421 23.6722ZM8.80802 32C5.62898 32 3.11224 29.4426 3.11224 26.3607C3.11224 24.9836 3.57585 23.8033 4.63553 22.623C4.70176 22.4919 4.90046 22.4919 5.03292 22.4919C5.16538 22.4919 5.29783 22.623 5.36406 22.7542C5.82767 24.0656 6.55622 24.7869 7.48344 24.8525C7.35098 24.5246 7.28475 24.1312 7.21852 23.8033C6.88737 22.0984 7.28474 20.3279 8.34442 18.9509C8.41065 18.8853 8.47689 18.8198 8.47689 18.7542C8.54246 18.623 8.67491 18.5575 8.80802 18.5575C8.94048 18.5575 9.07295 18.623 9.13852 18.7542C9.86771 19.6722 10.6625 20.4591 11.4572 21.1804C13.0461 22.623 14.5032 24 14.5032 26.3607C14.5032 29.4426 11.9208 32 8.80802 32Z" fill="#0F2453"/>
<path d="M12.4505 27.4102C12.2525 27.4102 12.0538 27.2134 12.0538 27.0167C12.0538 24.9839 10.7954 23.8036 9.27213 22.4266C9.13902 22.2954 8.94096 22.1643 8.8085 22.0331C8.60981 21.902 8.60981 21.6397 8.8085 21.443C8.94096 21.2463 9.20591 21.2463 9.4046 21.443C9.53706 21.5741 9.66885 21.7053 9.86819 21.8364C11.4577 23.279 12.9141 24.6561 12.9141 27.0167C12.8479 27.2134 12.6492 27.4102 12.4505 27.4102Z" fill="#0F2453"/>
</svg>
