<svg width="40" height="40" viewBox="0 0 40 40" fill="none" xmlns="http://www.w3.org/2000/svg">
<path d="M6.53593 25.4046C4.93731 25.4046 3.5459 26.7127 3.5459 28.365C3.5459 30.0173 4.86708 31.3254 6.53593 31.3254C8.20478 31.3254 9.52593 30.0173 9.52593 28.365C9.52593 26.7127 8.20478 25.4046 6.53593 25.4046Z" fill="#9BC9FF"/>
<path d="M36.991 26.5062C35.7393 26.5062 34.6963 27.5389 34.6963 28.7781C34.6963 30.0173 35.7393 31.05 36.991 31.05C38.2426 31.05 39.2856 30.0173 39.2856 28.7781C39.2856 27.5389 38.2426 26.5062 36.991 26.5062Z" fill="#9BC9FF"/>
<path d="M29.133 36.9707C29.8284 36.9707 30.4542 37.5215 30.4542 38.2788C30.4542 38.6231 30.3151 38.9673 30.037 39.1738C29.8284 39.3804 29.4807 39.5181 29.133 39.5181H10.4989C9.80355 39.5181 9.17773 38.9673 9.17773 38.21C9.17773 37.8657 9.31679 37.5215 9.5254 37.315C9.73332 37.1084 10.0817 36.9019 10.4287 36.9019H14.3227H25.1695H29.133V36.9707Z" fill="#9BC9FF"/>
<path d="M25.2403 34.3545C25.9363 34.3545 26.5614 34.9053 26.5614 35.6626C26.5614 36.0068 26.4224 36.3511 26.2138 36.5576C26.0052 36.7642 25.6575 36.9019 25.3098 36.9019H14.3935C13.6981 36.9019 13.0723 36.3511 13.0723 35.5938C13.0723 35.2495 13.2113 34.9053 13.4206 34.6988C13.6292 34.4922 13.9769 34.2857 14.3239 34.2857H17.8007H21.6947H25.2403V34.3545Z" fill="#9BC9FF"/>
<path d="M21.7621 27.0567V28.7778L17.8682 30.0859V28.3648L21.7621 27.0567Z" fill="white"/>
<path d="M21.7621 28.7781V30.4993L17.8682 31.8074V30.0862L21.7621 28.7781Z" fill="white"/>
<path d="M21.7621 25.3357V27.0569L17.8682 28.365V26.6438L21.7621 25.3357Z" fill="white"/>
<path d="M39.1461 9.84525L34.835 13.2876H21.7637V6.40291H34.835L39.1461 9.84525Z" fill="white"/>
<path d="M21.7637 16.3167H34.835L39.2157 19.7591L34.835 23.2014H21.7637C21.7637 20.9983 21.7637 17.556 21.7637 16.3167Z" fill="white"/>
<path d="M28.0908 26.8504C28.3683 27.1257 28.3683 27.5388 28.0908 27.7454C27.812 28.0208 27.3948 28.0208 27.1861 27.7454C26.908 27.47 26.908 27.0569 27.1861 26.8504C27.4643 26.575 27.812 26.575 28.0908 26.8504Z" fill="#1E81CE"/>
<path d="M21.7621 30.4991V34.3545H17.8682V31.8072L21.7621 30.4991Z" fill="#9BC9FF"/>
<path d="M21.7621 25.3357L17.8682 26.6438C17.8682 25.7488 17.8682 3.23586 17.8682 2.34085C17.8682 1.2393 18.7721 0.413134 19.8151 0.413134C20.8582 0.413134 21.7621 1.2393 21.7621 2.34085C21.7621 4.88818 21.7621 21.5491 21.7621 25.3357Z" fill="#9BC9FF"/>
<path d="M17.8688 11.9793V18.864H4.79753L0.486328 15.4217L4.79753 11.9793H17.8688Z" fill="white"/>
<path d="M21.7629 34.8364C21.5536 34.8364 21.3457 34.6299 21.3457 34.4233V23.2013C21.3457 22.9948 21.5536 22.7882 21.7629 22.7882C21.9715 22.7882 22.1801 22.9948 22.1801 23.2013V34.4233C22.1801 34.6299 22.0403 34.8364 21.7629 34.8364Z" fill="#1E81CE"/>
<path d="M21.7629 16.7297C21.5536 16.7297 21.3457 16.5232 21.3457 16.3167V13.2874C21.3457 13.0809 21.5536 12.8743 21.7629 12.8743C21.9715 12.8743 22.1801 13.0809 22.1801 13.2874V16.3167C22.1801 16.5232 22.0403 16.7297 21.7629 16.7297Z" fill="#1E81CE"/>
<path d="M17.8703 12.4612C17.6617 12.4612 17.4531 12.2546 17.4531 12.0481V2.34069C17.4531 1.0326 18.4961 -0.000104904 19.8173 -0.000104904C20.4431 -0.000104904 21.0682 0.275282 21.4861 0.688364C21.9027 1.10145 22.1815 1.72107 22.1815 2.34069V6.40266C22.1815 6.6092 21.9729 6.81574 21.7643 6.81574C21.555 6.81574 21.3471 6.6092 21.3471 6.40266V2.34069C21.3471 1.92761 21.2073 1.58337 20.9299 1.30799C20.6518 1.0326 20.2338 0.894904 19.8868 0.894904C19.0524 0.894904 18.3571 1.58337 18.3571 2.40954V12.1169C18.2875 12.2546 18.0789 12.4612 17.8703 12.4612Z" fill="#1E81CE"/>
<path d="M17.8703 34.8364C17.6617 34.8364 17.4531 34.6299 17.4531 34.4233V18.8639C17.4531 18.6574 17.6617 18.4509 17.8703 18.4509C18.0789 18.4509 18.2875 18.6574 18.2875 18.8639V34.3545C18.2875 34.6299 18.0789 34.8364 17.8703 34.8364Z" fill="#1E81CE"/>
<path d="M25.2388 37.3838C25.0302 37.3838 24.8216 37.1772 24.8216 36.9707C24.8216 36.7642 25.0302 36.5576 25.2388 36.5576C25.4481 36.5576 25.656 36.4888 25.8646 36.2822C26.0037 36.1445 26.1428 35.8692 26.1428 35.6626C26.1428 35.1807 25.7256 34.7676 25.2388 34.7676H14.392C14.1834 34.7676 13.9755 34.8365 13.7669 35.043C13.6278 35.1807 13.4887 35.4561 13.4887 35.6626C13.4887 36.1445 13.9053 36.5576 14.392 36.5576C14.6013 36.5576 14.8092 36.7642 14.8092 36.9707C14.8092 37.1772 14.6013 37.3838 14.392 37.3838C13.4192 37.3838 12.6543 36.6265 12.6543 35.6626C12.6543 35.1807 12.8622 34.7676 13.141 34.4234C13.4887 34.0791 13.9053 33.9414 14.392 33.9414H25.2388C26.2123 33.9414 26.9772 34.6988 26.9772 35.6626C26.9772 36.1445 26.7693 36.5576 26.4905 36.9019C26.1428 37.2461 25.7256 37.3838 25.2388 37.3838Z" fill="#1E81CE"/>
<path d="M10.5001 37.3838C10.2915 37.3838 10.0829 37.4527 9.8743 37.6592C9.73454 37.7969 9.59615 38.0723 9.59615 38.2788C9.59615 38.7608 10.0134 39.1738 10.5001 39.1738H29.2037C29.4116 39.1738 29.621 39.105 29.8296 38.8984C29.9686 38.7608 30.1077 38.4854 30.1077 38.2788C30.1077 37.7969 29.6905 37.3838 29.2037 37.3838H10.5001ZM29.1342 40H10.5001C9.52661 40 8.76172 39.2427 8.76172 38.2788C8.76172 37.7969 8.97033 37.3838 9.24778 37.0396C9.59615 36.6953 10.0134 36.5577 10.5001 36.5577H29.2037C30.1772 36.5577 30.9421 37.315 30.9421 38.2788C30.9421 38.7608 30.7328 39.1738 30.4554 39.5181C30.0382 39.7935 29.621 40 29.1342 40Z" fill="#1E81CE"/>
<path d="M22.1801 12.8743H34.6263L38.45 9.84501L34.6263 6.81575H22.1801V12.8743ZM34.8342 13.7004H21.7629C21.5536 13.7004 21.3457 13.4939 21.3457 13.2874V6.40267C21.3457 6.19613 21.5536 5.98959 21.7629 5.98959H34.8342C34.9037 5.98959 35.0428 5.98959 35.113 6.05843L39.493 9.50078C39.5626 9.56963 39.6321 9.70732 39.6321 9.84501C39.6321 9.98271 39.5626 10.1204 39.493 10.1892L35.113 13.6316C34.9739 13.7004 34.9037 13.7004 34.8342 13.7004Z" fill="#1E81CE"/>
<path d="M22.1801 22.7883H34.6263L38.45 19.7591L34.6263 16.7298H22.1801V22.7883ZM34.8342 23.6145H21.7629C21.5536 23.6145 21.3457 23.408 21.3457 23.2014V16.3167C21.3457 16.1102 21.5536 15.9037 21.7629 15.9037H34.8342C34.9037 15.9037 35.0428 15.9037 35.113 15.9725L39.493 19.4148C39.5626 19.4837 39.6321 19.6214 39.6321 19.7591C39.6321 19.8968 39.5626 20.0345 39.493 20.1033L35.113 23.5457C34.9739 23.6145 34.9037 23.6145 34.8342 23.6145Z" fill="#1E81CE"/>
<path d="M5.00585 18.4509H17.452V12.3924H5.00585L1.1821 15.4217L5.00585 18.4509ZM17.8692 19.3459H4.79794C4.72771 19.3459 4.58934 19.3459 4.51912 19.2771L0.139072 15.8348C0.0688482 15.7659 0 15.6282 0 15.4905C0 15.3528 0.0688482 15.2151 0.139072 15.1463L4.51912 11.7039C4.58934 11.6351 4.65818 11.6351 4.79794 11.6351H17.8692C18.0778 11.6351 18.2864 11.8416 18.2864 12.0482V18.9329C18.2864 19.1394 18.0778 19.3459 17.8692 19.3459Z" fill="#1E81CE"/>
<path d="M17.8699 32.2202C17.6613 32.2202 17.5222 32.0825 17.4527 31.9448C17.3831 31.7383 17.5222 31.4629 17.7308 31.3941L21.6248 30.086C21.8334 30.0171 22.1115 30.1548 22.181 30.3613C22.2499 30.5679 22.1115 30.8433 21.9022 30.9121L18.0089 32.2202C17.9394 32.2202 17.9394 32.2202 17.8699 32.2202Z" fill="#1E81CE"/>
<path d="M17.8699 30.4993C17.6613 30.4993 17.5222 30.3616 17.4527 30.2239C17.3831 30.0173 17.5222 29.742 17.7308 29.6731L21.6248 28.365C21.8334 28.2962 22.1115 28.4339 22.181 28.6404C22.2499 28.8469 22.1115 29.1223 21.9022 29.1912L18.0089 30.4993C17.9394 30.4993 17.9394 30.4993 17.8699 30.4993Z" fill="#1E81CE"/>
<path d="M17.8699 28.7781C17.6613 28.7781 17.5222 28.6404 17.4527 28.5027C17.3831 28.2961 17.5222 28.0208 17.7308 27.9519L21.6248 26.6438C21.8334 26.575 22.1115 26.7127 22.181 26.9192C22.2499 27.1258 22.1115 27.4011 21.9022 27.47L18.0089 28.7781C17.9394 28.7781 17.9394 28.7781 17.8699 28.7781Z" fill="#1E81CE"/>
<path d="M17.8699 27.0569C17.6613 27.0569 17.5222 26.9192 17.4527 26.7815C17.3831 26.575 17.5222 26.2996 17.7308 26.2307L21.6248 24.9226C21.8334 24.8538 22.1115 24.9915 22.181 25.198C22.2499 25.4046 22.1115 25.6799 21.9022 25.7488L18.0089 27.0569C17.9394 27.0569 17.9394 27.0569 17.8699 27.0569Z" fill="#1E81CE"/>
<path d="M30.8713 19.3459H21.7629C21.5536 19.3459 21.3457 19.1394 21.3457 18.9329C21.3457 18.7263 21.5536 18.5198 21.7629 18.5198H30.8713C31.08 18.5198 31.2886 18.7263 31.2886 18.9329C31.3581 19.1394 31.1495 19.3459 30.8713 19.3459Z" fill="#1E81CE"/>
<path d="M13.4893 17.1428H9.10862C8.90002 17.1428 8.69141 16.9363 8.69141 16.7297C8.69141 16.5232 8.90002 16.3167 9.10862 16.3167H13.4893C13.6973 16.3167 13.9059 16.5232 13.9059 16.7297C13.9761 17.0051 13.7675 17.1428 13.4893 17.1428Z" fill="#1E81CE"/>
<path d="M6.53634 25.7488C5.0761 25.7488 3.894 26.9192 3.894 28.365C3.894 29.8108 5.0761 30.9812 6.53634 30.9812C7.99658 30.9812 9.17867 29.8108 9.17867 28.365C9.17867 26.9192 7.99658 25.7488 6.53634 25.7488ZM6.53634 31.8074C4.59004 31.8074 3.05957 30.2927 3.05957 28.365C3.05957 26.4373 4.59004 24.9227 6.53634 24.9227C8.48333 24.9227 10.0131 26.4373 10.0131 28.365C10.0131 30.2239 8.48333 31.8074 6.53634 31.8074Z" fill="#1E81CE"/>
<path d="M36.99 27.0569C36.0165 27.0569 35.2523 27.8142 35.2523 28.7781C35.2523 29.742 36.0165 30.4993 36.99 30.4993C37.9635 30.4993 38.7284 29.742 38.7284 28.7781C38.7284 27.8142 37.9635 27.0569 36.99 27.0569ZM36.99 31.3943C35.5298 31.3943 34.3477 30.2239 34.3477 28.7781C34.3477 27.3323 35.5298 26.1619 36.99 26.1619C38.4503 26.1619 39.6324 27.3323 39.6324 28.7781C39.6324 30.2239 38.4503 31.3943 36.99 31.3943Z" fill="#1E81CE"/>
<path d="M6.53593 25.4046C4.93731 25.4046 3.5459 26.7127 3.5459 28.365C3.5459 30.0173 4.86708 31.3254 6.53593 31.3254C8.20478 31.3254 9.52593 30.0173 9.52593 28.365C9.52593 26.7127 8.20478 25.4046 6.53593 25.4046Z" fill="#9BC9FF"/>
<path d="M36.991 26.5062C35.7393 26.5062 34.6963 27.5389 34.6963 28.7781C34.6963 30.0173 35.7393 31.05 36.991 31.05C38.2426 31.05 39.2856 30.0173 39.2856 28.7781C39.2856 27.5389 38.2426 26.5062 36.991 26.5062Z" fill="#9BC9FF"/>
<path d="M29.133 36.9707C29.8284 36.9707 30.4542 37.5215 30.4542 38.2788C30.4542 38.6231 30.3151 38.9673 30.037 39.1738C29.8284 39.3804 29.4807 39.5181 29.133 39.5181H10.4989C9.80355 39.5181 9.17773 38.9673 9.17773 38.21C9.17773 37.8657 9.31679 37.5215 9.5254 37.315C9.73332 37.1084 10.0817 36.9019 10.4287 36.9019H14.3227H25.1695H29.133V36.9707Z" fill="#9BC9FF"/>
<path d="M25.2403 34.3545C25.9363 34.3545 26.5614 34.9053 26.5614 35.6626C26.5614 36.0068 26.4224 36.3511 26.2138 36.5576C26.0052 36.7642 25.6575 36.9019 25.3098 36.9019H14.3935C13.6981 36.9019 13.0723 36.3511 13.0723 35.5938C13.0723 35.2495 13.2113 34.9053 13.4206 34.6988C13.6292 34.4922 13.9769 34.2857 14.3239 34.2857H17.8007H21.6947H25.2403V34.3545Z" fill="#9BC9FF"/>
<path d="M21.7621 27.0567V28.7778L17.8682 30.0859V28.3648L21.7621 27.0567Z" fill="white"/>
<path d="M21.7621 28.7781V30.4993L17.8682 31.8074V30.0862L21.7621 28.7781Z" fill="white"/>
<path d="M21.7621 25.3357V27.0569L17.8682 28.365V26.6438L21.7621 25.3357Z" fill="white"/>
<path d="M39.1461 9.84525L34.835 13.2876H21.7637V6.40291H34.835L39.1461 9.84525Z" fill="white"/>
<path d="M21.7637 16.3167H34.835L39.2157 19.7591L34.835 23.2014H21.7637C21.7637 20.9983 21.7637 17.556 21.7637 16.3167Z" fill="white"/>
<path d="M28.0908 26.8504C28.3683 27.1257 28.3683 27.5388 28.0908 27.7454C27.812 28.0208 27.3948 28.0208 27.1861 27.7454C26.908 27.47 26.908 27.0569 27.1861 26.8504C27.4643 26.575 27.812 26.575 28.0908 26.8504Z" fill="#1E81CE"/>
<path d="M21.7621 30.4991V34.3545H17.8682V31.8072L21.7621 30.4991Z" fill="#9BC9FF"/>
<path d="M21.7621 25.3357L17.8682 26.6438C17.8682 25.7488 17.8682 3.23586 17.8682 2.34085C17.8682 1.2393 18.7721 0.413134 19.8151 0.413134C20.8582 0.413134 21.7621 1.2393 21.7621 2.34085C21.7621 4.88818 21.7621 21.5491 21.7621 25.3357Z" fill="#9BC9FF"/>
<path d="M17.8688 11.9793V18.864H4.79753L0.486328 15.4217L4.79753 11.9793H17.8688Z" fill="white"/>
<path d="M21.7629 34.8364C21.5536 34.8364 21.3457 34.6299 21.3457 34.4233V23.2013C21.3457 22.9948 21.5536 22.7882 21.7629 22.7882C21.9715 22.7882 22.1801 22.9948 22.1801 23.2013V34.4233C22.1801 34.6299 22.0403 34.8364 21.7629 34.8364Z" fill="#1E81CE"/>
<path d="M21.7629 16.7297C21.5536 16.7297 21.3457 16.5232 21.3457 16.3167V13.2874C21.3457 13.0809 21.5536 12.8743 21.7629 12.8743C21.9715 12.8743 22.1801 13.0809 22.1801 13.2874V16.3167C22.1801 16.5232 22.0403 16.7297 21.7629 16.7297Z" fill="#1E81CE"/>
<path d="M17.8703 12.4612C17.6617 12.4612 17.4531 12.2546 17.4531 12.0481V2.34069C17.4531 1.0326 18.4961 -0.000104904 19.8173 -0.000104904C20.4431 -0.000104904 21.0682 0.275282 21.4861 0.688364C21.9027 1.10145 22.1815 1.72107 22.1815 2.34069V6.40266C22.1815 6.6092 21.9729 6.81574 21.7643 6.81574C21.555 6.81574 21.3471 6.6092 21.3471 6.40266V2.34069C21.3471 1.92761 21.2073 1.58337 20.9299 1.30799C20.6518 1.0326 20.2338 0.894904 19.8868 0.894904C19.0524 0.894904 18.3571 1.58337 18.3571 2.40954V12.1169C18.2875 12.2546 18.0789 12.4612 17.8703 12.4612Z" fill="#1E81CE"/>
<path d="M17.8703 34.8364C17.6617 34.8364 17.4531 34.6299 17.4531 34.4233V18.8639C17.4531 18.6574 17.6617 18.4509 17.8703 18.4509C18.0789 18.4509 18.2875 18.6574 18.2875 18.8639V34.3545C18.2875 34.6299 18.0789 34.8364 17.8703 34.8364Z" fill="#1E81CE"/>
<path d="M25.2388 37.3838C25.0302 37.3838 24.8216 37.1772 24.8216 36.9707C24.8216 36.7642 25.0302 36.5576 25.2388 36.5576C25.4481 36.5576 25.656 36.4888 25.8646 36.2822C26.0037 36.1445 26.1428 35.8692 26.1428 35.6626C26.1428 35.1807 25.7256 34.7676 25.2388 34.7676H14.392C14.1834 34.7676 13.9755 34.8365 13.7669 35.043C13.6278 35.1807 13.4887 35.4561 13.4887 35.6626C13.4887 36.1445 13.9053 36.5576 14.392 36.5576C14.6013 36.5576 14.8092 36.7642 14.8092 36.9707C14.8092 37.1772 14.6013 37.3838 14.392 37.3838C13.4192 37.3838 12.6543 36.6265 12.6543 35.6626C12.6543 35.1807 12.8622 34.7676 13.141 34.4234C13.4887 34.0791 13.9053 33.9414 14.392 33.9414H25.2388C26.2123 33.9414 26.9772 34.6988 26.9772 35.6626C26.9772 36.1445 26.7693 36.5576 26.4905 36.9019C26.1428 37.2461 25.7256 37.3838 25.2388 37.3838Z" fill="#1E81CE"/>
<path d="M10.5001 37.3838C10.2915 37.3838 10.0829 37.4527 9.8743 37.6592C9.73454 37.7969 9.59615 38.0723 9.59615 38.2788C9.59615 38.7608 10.0134 39.1738 10.5001 39.1738H29.2037C29.4116 39.1738 29.621 39.105 29.8296 38.8984C29.9686 38.7608 30.1077 38.4854 30.1077 38.2788C30.1077 37.7969 29.6905 37.3838 29.2037 37.3838H10.5001ZM29.1342 40H10.5001C9.52661 40 8.76172 39.2427 8.76172 38.2788C8.76172 37.7969 8.97033 37.3838 9.24778 37.0396C9.59615 36.6953 10.0134 36.5577 10.5001 36.5577H29.2037C30.1772 36.5577 30.9421 37.315 30.9421 38.2788C30.9421 38.7608 30.7328 39.1738 30.4554 39.5181C30.0382 39.7935 29.621 40 29.1342 40Z" fill="#1E81CE"/>
<path d="M22.1801 12.8743H34.6263L38.45 9.84501L34.6263 6.81575H22.1801V12.8743ZM34.8342 13.7004H21.7629C21.5536 13.7004 21.3457 13.4939 21.3457 13.2874V6.40267C21.3457 6.19613 21.5536 5.98959 21.7629 5.98959H34.8342C34.9037 5.98959 35.0428 5.98959 35.113 6.05843L39.493 9.50078C39.5626 9.56963 39.6321 9.70732 39.6321 9.84501C39.6321 9.98271 39.5626 10.1204 39.493 10.1892L35.113 13.6316C34.9739 13.7004 34.9037 13.7004 34.8342 13.7004Z" fill="#1E81CE"/>
<path d="M22.1801 22.7883H34.6263L38.45 19.7591L34.6263 16.7298H22.1801V22.7883ZM34.8342 23.6145H21.7629C21.5536 23.6145 21.3457 23.408 21.3457 23.2014V16.3167C21.3457 16.1102 21.5536 15.9037 21.7629 15.9037H34.8342C34.9037 15.9037 35.0428 15.9037 35.113 15.9725L39.493 19.4148C39.5626 19.4837 39.6321 19.6214 39.6321 19.7591C39.6321 19.8968 39.5626 20.0345 39.493 20.1033L35.113 23.5457C34.9739 23.6145 34.9037 23.6145 34.8342 23.6145Z" fill="#1E81CE"/>
<path d="M5.00585 18.4509H17.452V12.3924H5.00585L1.1821 15.4217L5.00585 18.4509ZM17.8692 19.3459H4.79794C4.72771 19.3459 4.58934 19.3459 4.51912 19.2771L0.139072 15.8348C0.0688482 15.7659 0 15.6282 0 15.4905C0 15.3528 0.0688482 15.2151 0.139072 15.1463L4.51912 11.7039C4.58934 11.6351 4.65818 11.6351 4.79794 11.6351H17.8692C18.0778 11.6351 18.2864 11.8416 18.2864 12.0482V18.9329C18.2864 19.1394 18.0778 19.3459 17.8692 19.3459Z" fill="#1E81CE"/>
<path d="M17.8699 32.2202C17.6613 32.2202 17.5222 32.0825 17.4527 31.9448C17.3831 31.7383 17.5222 31.4629 17.7308 31.3941L21.6248 30.086C21.8334 30.0171 22.1115 30.1548 22.181 30.3613C22.2499 30.5679 22.1115 30.8433 21.9022 30.9121L18.0089 32.2202C17.9394 32.2202 17.9394 32.2202 17.8699 32.2202Z" fill="#1E81CE"/>
<path d="M17.8699 30.4993C17.6613 30.4993 17.5222 30.3616 17.4527 30.2239C17.3831 30.0173 17.5222 29.742 17.7308 29.6731L21.6248 28.365C21.8334 28.2962 22.1115 28.4339 22.181 28.6404C22.2499 28.8469 22.1115 29.1223 21.9022 29.1912L18.0089 30.4993C17.9394 30.4993 17.9394 30.4993 17.8699 30.4993Z" fill="#1E81CE"/>
<path d="M17.8699 28.7781C17.6613 28.7781 17.5222 28.6404 17.4527 28.5027C17.3831 28.2961 17.5222 28.0208 17.7308 27.9519L21.6248 26.6438C21.8334 26.575 22.1115 26.7127 22.181 26.9192C22.2499 27.1258 22.1115 27.4011 21.9022 27.47L18.0089 28.7781C17.9394 28.7781 17.9394 28.7781 17.8699 28.7781Z" fill="#1E81CE"/>
<path d="M17.8699 27.0569C17.6613 27.0569 17.5222 26.9192 17.4527 26.7815C17.3831 26.575 17.5222 26.2996 17.7308 26.2307L21.6248 24.9226C21.8334 24.8538 22.1115 24.9915 22.181 25.198C22.2499 25.4046 22.1115 25.6799 21.9022 25.7488L18.0089 27.0569C17.9394 27.0569 17.9394 27.0569 17.8699 27.0569Z" fill="#1E81CE"/>
<path d="M30.8713 19.3459H21.7629C21.5536 19.3459 21.3457 19.1394 21.3457 18.9329C21.3457 18.7263 21.5536 18.5198 21.7629 18.5198H30.8713C31.08 18.5198 31.2886 18.7263 31.2886 18.9329C31.3581 19.1394 31.1495 19.3459 30.8713 19.3459Z" fill="#1E81CE"/>
<path d="M13.4893 17.1428H9.10862C8.90002 17.1428 8.69141 16.9363 8.69141 16.7297C8.69141 16.5232 8.90002 16.3167 9.10862 16.3167H13.4893C13.6973 16.3167 13.9059 16.5232 13.9059 16.7297C13.9761 17.0051 13.7675 17.1428 13.4893 17.1428Z" fill="#1E81CE"/>
<path d="M6.53634 25.7488C5.0761 25.7488 3.894 26.9192 3.894 28.365C3.894 29.8108 5.0761 30.9812 6.53634 30.9812C7.99658 30.9812 9.17867 29.8108 9.17867 28.365C9.17867 26.9192 7.99658 25.7488 6.53634 25.7488ZM6.53634 31.8074C4.59004 31.8074 3.05957 30.2927 3.05957 28.365C3.05957 26.4373 4.59004 24.9227 6.53634 24.9227C8.48333 24.9227 10.0131 26.4373 10.0131 28.365C10.0131 30.2239 8.48333 31.8074 6.53634 31.8074Z" fill="#1E81CE"/>
<path d="M36.99 27.0569C36.0165 27.0569 35.2523 27.8142 35.2523 28.7781C35.2523 29.742 36.0165 30.4993 36.99 30.4993C37.9635 30.4993 38.7284 29.742 38.7284 28.7781C38.7284 27.8142 37.9635 27.0569 36.99 27.0569ZM36.99 31.3943C35.5298 31.3943 34.3477 30.2239 34.3477 28.7781C34.3477 27.3323 35.5298 26.1619 36.99 26.1619C38.4503 26.1619 39.6324 27.3323 39.6324 28.7781C39.6324 30.2239 38.4503 31.3943 36.99 31.3943Z" fill="#1E81CE"/>
</svg>
