<svg width="42" height="40" viewBox="0 0 42 40" fill="none" xmlns="http://www.w3.org/2000/svg">
<path d="M24.0914 0.502874C25.6146 0.502874 26.8476 1.7237 26.8476 3.23178C26.8476 4.73987 25.6146 5.96069 24.0914 5.96069C22.569 5.96069 21.3359 4.73987 21.3359 3.23178C21.3359 1.7237 22.569 0.502874 24.0914 0.502874Z" fill="white"/>
<path d="M3.71015 20.2514C4.94318 20.2514 5.95862 21.2568 5.95862 22.4776C5.95862 23.6985 4.94318 24.7039 3.71015 24.7039C2.47711 24.7039 1.46166 23.6985 1.46166 22.4776C1.38913 21.2568 2.40458 20.2514 3.71015 20.2514Z" fill="white"/>
<path d="M13.6458 9.91043C14.9514 9.91043 16.1844 9.47955 17.1273 8.6896C16.4745 11.4185 13.9359 13.5011 10.9621 13.5011C7.48133 13.5011 4.58008 10.7004 4.58008 7.18152C4.58008 4.23717 6.68349 1.7237 9.43969 1.07738C8.64112 2.01095 8.20666 3.23178 8.20666 4.52442C8.20666 7.54059 10.6727 9.91043 13.6458 9.91043Z" fill="white"/>
<path d="M35.4048 39.5692H28.1523V29.659C29.8931 37.7739 35.4048 39.5692 35.4048 39.5692Z" fill="#9BC9FF"/>
<path d="M28.1516 29.659V39.5692H20.8984C20.8984 39.5692 26.4108 37.7739 28.1516 29.659Z" fill="#9BC9FF"/>
<path d="M38.161 39.5692H35.4048C35.4048 39.5692 29.8931 37.7739 28.1523 29.659V23.3394C29.0227 24.7757 37.3631 38.3484 38.161 39.5692Z" fill="white"/>
<path d="M28.1512 23.4113V29.7309C26.4104 37.8458 20.8981 39.6411 20.8981 39.6411C20.0277 39.6411 17.9975 39.6411 17.3447 39.6411C17.5623 39.282 27.7885 23.914 28.1512 23.4113Z" fill="white"/>
<path d="M19.7397 36.0504L17.4187 39.5692H0.519531L3.13067 35.9067L3.2032 35.9785H19.5221L19.7397 36.0504Z" fill="#9BC9FF"/>
<path d="M3.13086 35.9069L12.2691 23.4114C17.7815 23.4114 25.034 23.4114 28.1528 23.4114L19.7399 36.0505L19.5941 35.9787L3.13086 35.9069Z" fill="#9BC9FF"/>
<path d="M40.8445 28.7972C39.7565 28.7972 32.721 28.7972 31.4879 28.7972L28.1522 23.4112H25.396C25.8312 22.8367 26.2664 22.1904 26.7016 21.6159H18.9414C22.6405 21.2568 24.8157 17.8098 26.9192 14.7936H20.0287C26.1213 14.2191 29.7479 3.66255 29.7479 3.66255C29.7479 3.66255 32.1414 11.3466 38.9587 14.7936H33.1561C35.187 17.0917 36.4926 19.8206 40.1192 21.6159H33.3737C35.5497 24.0576 37.0003 26.8583 40.8445 28.7972Z" fill="#9BC9FF"/>
<path d="M35.4044 40C35.3318 40 35.3318 40 35.2593 40C35.1868 40 33.7361 39.4973 32.1412 37.9892C30.6173 36.6248 28.6596 34.1113 27.7167 29.8025C27.6442 29.5871 27.7893 29.2998 28.0794 29.2998C28.297 29.228 28.5871 29.3716 28.5871 29.6589C29.4575 33.6804 31.2708 36.0503 32.6489 37.3429C34.1713 38.7074 35.4769 39.1382 35.4769 39.2101C35.6945 39.2819 35.8395 39.5691 35.767 39.7846C35.767 39.8564 35.6219 40 35.4044 40Z" fill="#1E81CE"/>
<path d="M20.8987 40C20.6818 40 20.536 39.8564 20.4642 39.7127C20.3917 39.4973 20.5361 39.2101 20.7544 39.1382C20.7544 39.1382 22.0592 38.7074 23.5824 37.2711C24.9605 35.9784 26.8463 33.6086 27.6441 29.5871C27.7167 29.3716 27.9343 29.1562 28.1519 29.228C28.3695 29.2998 28.5871 29.5152 28.5145 29.7307C27.5716 34.0395 25.6133 36.553 24.0901 37.9174C22.4219 39.4255 20.9712 39.8564 20.9712 39.9282C20.9712 40 20.9712 40 20.8987 40Z" fill="#1E81CE"/>
<path d="M40.8441 29.228H31.4875C31.2706 29.228 31.0523 29.0126 31.0523 28.7971C31.0523 28.5817 31.2706 28.3663 31.4875 28.3663H39.1758C37.0724 27.0018 35.7668 25.2783 34.462 23.6266C34.0261 23.0521 33.5191 22.4776 33.0839 21.9031C32.9381 21.7594 32.9381 21.6158 33.0106 21.4004C33.0839 21.2567 33.2282 21.1131 33.4458 21.1131H38.523C36.6372 19.8205 35.4042 18.3124 34.2437 16.8043C33.8085 16.2298 33.3733 15.6553 32.8656 15.0808C32.7205 14.9372 32.7205 14.7935 32.7931 14.5781C32.8656 14.4345 33.0107 14.2908 33.2282 14.2908H37.3625C34.5338 12.4955 32.6487 9.98203 31.4875 8.11488C30.6904 6.82224 30.1826 5.67323 29.82 4.88328C29.3848 5.88867 28.6595 7.54038 27.644 9.19209C26.1209 11.6337 24.5252 13.3573 22.857 14.2908H26.9913C27.1363 14.2908 27.2814 14.3627 27.4264 14.5063C27.499 14.6499 27.499 14.8653 27.4264 14.9372C27.2814 15.1526 27.1363 15.368 26.9913 15.5835C25.4681 17.6661 23.9449 19.8205 21.914 21.0413H26.9187C27.0638 21.0413 27.2088 21.1131 27.3539 21.2567C27.4264 21.4004 27.4264 21.6158 27.3539 21.6876C27.2088 21.8312 27.1363 22.0467 26.9913 22.1903C26.7011 22.6212 26.411 23.0521 26.0483 23.483C25.9033 23.6984 25.6131 23.6984 25.3956 23.5548C25.178 23.4111 25.178 23.1239 25.323 22.9084C25.6132 22.5494 25.8307 22.1903 26.1209 21.8312H19.1586C18.941 21.8312 18.7227 21.6158 18.7227 21.4004C18.7227 21.1849 18.8684 20.9695 19.1586 20.8977C22.3492 20.6104 24.3801 17.7379 26.3385 15.009H20.3916C20.174 15.009 19.9564 14.7935 19.9564 14.5781C19.9564 14.3627 20.1008 14.1472 20.3916 14.0754C26.1209 13.5009 29.6742 3.3752 29.6742 3.23157C29.7475 3.01613 29.8925 2.94432 30.1101 2.94432C30.3277 2.94432 30.4728 3.08795 30.5446 3.23157C30.5446 3.30338 32.9381 10.772 39.5385 14.0754C39.7561 14.1472 39.8286 14.3627 39.7561 14.5781C39.6836 14.7935 39.5385 14.9372 39.3209 14.9372H34.462C34.7514 15.2962 34.969 15.5835 35.2591 15.9425C36.6372 17.7379 38.0153 19.5332 40.699 20.8977C40.9166 20.9695 40.9891 21.1849 40.9166 21.4004C40.8441 21.6158 40.699 21.7594 40.4814 21.7594H34.6789C34.969 22.1185 35.2591 22.4776 35.4767 22.7648C36.9999 24.7038 38.5231 26.6427 41.3518 28.079C41.5687 28.1508 41.6419 28.3663 41.5687 28.5817C41.2793 29.0844 41.0617 29.228 40.8441 29.228Z" fill="#1E81CE"/>
<path d="M19.5207 36.4094H3.20179C2.98419 36.4094 2.7666 36.194 2.7666 35.9785C2.7666 35.7631 2.98419 35.5477 3.20179 35.5477H19.5207C19.7383 35.5477 19.9559 35.7631 19.9559 35.9785C20.0277 36.194 19.8108 36.4094 19.5207 36.4094Z" fill="#1E81CE"/>
<path d="M15.4587 34.614H4.57972C4.36213 34.614 4.14453 34.3986 4.14453 34.1831C4.14453 33.9677 4.36213 33.7523 4.57972 33.7523H15.4587C15.6763 33.7523 15.8939 33.9677 15.8939 34.1831C15.8939 34.3986 15.7489 34.614 15.4587 34.614Z" fill="#1E81CE"/>
<path d="M8.35137 2.01082C6.32048 2.9444 5.01491 4.95517 5.01491 7.2532C5.01491 10.4848 7.62604 13.0701 10.8892 13.0701C13.2103 13.0701 15.2411 11.7774 16.1841 9.76667C15.3862 10.1257 14.5158 10.3412 13.5729 10.3412C10.3097 10.3412 7.69858 7.7559 7.69858 4.52429C7.77039 3.66253 7.98871 2.80077 8.35137 2.01082ZM10.9618 14.0037C7.19085 14.0037 4.14453 10.9875 4.14453 7.2532C4.14453 4.09341 6.32048 1.43631 9.3668 0.718181C9.58368 0.646367 9.72946 0.718181 9.87453 0.933621C9.94634 1.07725 9.94634 1.29269 9.87453 1.43631C9.14849 2.29808 8.71331 3.44709 8.71331 4.59611C8.71331 7.32501 10.9618 9.55123 13.718 9.55123C14.8785 9.55123 15.9665 9.12035 16.9094 8.40222C17.0544 8.25859 17.272 8.25859 17.4171 8.40222C17.5622 8.47403 17.6347 8.68947 17.6347 8.90491C16.8368 11.8493 14.0806 14.0037 10.9618 14.0037Z" fill="#1E81CE"/>
<path d="M17.4186 40C17.3461 40 17.2735 40 17.201 39.9282C16.9834 39.7846 16.9109 39.4973 17.0559 39.2819L27.8624 23.1238C27.935 22.9802 28.08 22.9084 28.2251 22.9084C28.3701 22.9084 28.5152 22.9802 28.5877 23.1238L31.9235 28.5099L38.5964 39.2819C38.6689 39.4255 38.6689 39.5691 38.5964 39.7127C38.5238 39.8564 38.3788 39.9282 38.2337 39.9282H28.1525C27.935 39.9282 27.7174 39.7127 27.7174 39.4973C27.7174 39.2819 27.935 39.0664 28.1525 39.0664H37.2908L31.0531 29.0125L28.08 24.2011L17.7813 39.7846C17.7087 39.9282 17.5637 40 17.4186 40Z" fill="#1E81CE"/>
<path d="M1.38932 39.1382H27.7168V23.842H12.5592L1.38932 39.1382ZM28.152 40H0.518937C0.373874 40 0.229533 39.9282 0.0837522 39.7846C-0.0613109 39.6409 0.0112207 39.4255 0.0837522 39.2819L11.8331 23.1238C11.9057 22.9802 12.0507 22.9084 12.1958 22.9084H28.0795C28.2971 22.9084 28.5147 23.1238 28.5147 23.3393V39.4973C28.5872 39.7846 28.4422 40 28.152 40Z" fill="#1E81CE"/>
<path d="M3.71128 20.6824C2.69584 20.6824 1.89799 21.4724 1.89799 22.4778C1.89799 23.4831 2.69584 24.2731 3.71128 24.2731C4.72672 24.2731 5.52457 23.4831 5.52457 22.4778C5.52457 21.5442 4.65419 20.6824 3.71128 20.6824ZM3.71128 25.2067C2.18811 25.2067 0.955078 23.9858 0.955078 22.4778C0.955078 20.9697 2.18811 19.7488 3.71128 19.7488C5.23444 19.7488 6.46748 20.9697 6.46748 22.4778C6.39494 23.9858 5.16191 25.2067 3.71128 25.2067Z" fill="#1E81CE"/>
<path d="M24.0898 0.933574C22.8568 0.933574 21.8413 1.93896 21.8413 3.15979C21.8413 4.38062 22.8568 5.38601 24.0898 5.38601C25.3229 5.38601 26.3383 4.38062 26.3383 3.15979C26.3383 1.93896 25.3229 0.933574 24.0898 0.933574ZM24.0898 6.31958C22.3491 6.31958 20.8984 4.88331 20.8984 3.15979C20.8984 1.43627 22.3491 0 24.0898 0C25.8306 0 27.2812 1.43627 27.2812 3.15979C27.2812 4.88331 25.8306 6.31958 24.0898 6.31958Z" fill="#1E81CE"/>
<path d="M24.0914 0.502874C25.6146 0.502874 26.8476 1.7237 26.8476 3.23178C26.8476 4.73987 25.6146 5.96069 24.0914 5.96069C22.569 5.96069 21.3359 4.73987 21.3359 3.23178C21.3359 1.7237 22.569 0.502874 24.0914 0.502874Z" fill="white"/>
<path d="M3.71015 20.2514C4.94318 20.2514 5.95862 21.2568 5.95862 22.4776C5.95862 23.6985 4.94318 24.7039 3.71015 24.7039C2.47711 24.7039 1.46166 23.6985 1.46166 22.4776C1.38913 21.2568 2.40458 20.2514 3.71015 20.2514Z" fill="white"/>
<path d="M13.6458 9.91043C14.9514 9.91043 16.1844 9.47955 17.1273 8.6896C16.4745 11.4185 13.9359 13.5011 10.9621 13.5011C7.48133 13.5011 4.58008 10.7004 4.58008 7.18152C4.58008 4.23717 6.68349 1.7237 9.43969 1.07738C8.64112 2.01095 8.20666 3.23178 8.20666 4.52442C8.20666 7.54059 10.6727 9.91043 13.6458 9.91043Z" fill="white"/>
<path d="M35.4048 39.5692H28.1523V29.659C29.8931 37.7739 35.4048 39.5692 35.4048 39.5692Z" fill="#9BC9FF"/>
<path d="M28.1516 29.659V39.5692H20.8984C20.8984 39.5692 26.4108 37.7739 28.1516 29.659Z" fill="#9BC9FF"/>
<path d="M38.161 39.5692H35.4048C35.4048 39.5692 29.8931 37.7739 28.1523 29.659V23.3394C29.0227 24.7757 37.3631 38.3484 38.161 39.5692Z" fill="white"/>
<path d="M28.1512 23.4113V29.7309C26.4104 37.8458 20.8981 39.6411 20.8981 39.6411C20.0277 39.6411 17.9975 39.6411 17.3447 39.6411C17.5623 39.282 27.7885 23.914 28.1512 23.4113Z" fill="white"/>
<path d="M19.7397 36.0504L17.4187 39.5692H0.519531L3.13067 35.9067L3.2032 35.9785H19.5221L19.7397 36.0504Z" fill="#9BC9FF"/>
<path d="M3.13086 35.9069L12.2691 23.4114C17.7815 23.4114 25.034 23.4114 28.1528 23.4114L19.7399 36.0505L19.5941 35.9787L3.13086 35.9069Z" fill="#9BC9FF"/>
<path d="M40.8445 28.7972C39.7565 28.7972 32.721 28.7972 31.4879 28.7972L28.1522 23.4112H25.396C25.8312 22.8367 26.2664 22.1904 26.7016 21.6159H18.9414C22.6405 21.2568 24.8157 17.8098 26.9192 14.7936H20.0287C26.1213 14.2191 29.7479 3.66255 29.7479 3.66255C29.7479 3.66255 32.1414 11.3466 38.9587 14.7936H33.1561C35.187 17.0917 36.4926 19.8206 40.1192 21.6159H33.3737C35.5497 24.0576 37.0003 26.8583 40.8445 28.7972Z" fill="#9BC9FF"/>
<path d="M35.4044 40C35.3318 40 35.3318 40 35.2593 40C35.1868 40 33.7361 39.4973 32.1412 37.9892C30.6173 36.6248 28.6596 34.1113 27.7167 29.8025C27.6442 29.5871 27.7893 29.2998 28.0794 29.2998C28.297 29.228 28.5871 29.3716 28.5871 29.6589C29.4575 33.6804 31.2708 36.0503 32.6489 37.3429C34.1713 38.7074 35.4769 39.1382 35.4769 39.2101C35.6945 39.2819 35.8395 39.5691 35.767 39.7846C35.767 39.8564 35.6219 40 35.4044 40Z" fill="#1E81CE"/>
<path d="M20.8987 40C20.6818 40 20.536 39.8564 20.4642 39.7127C20.3917 39.4973 20.5361 39.2101 20.7544 39.1382C20.7544 39.1382 22.0592 38.7074 23.5824 37.2711C24.9605 35.9784 26.8463 33.6086 27.6441 29.5871C27.7167 29.3716 27.9343 29.1562 28.1519 29.228C28.3695 29.2998 28.5871 29.5152 28.5145 29.7307C27.5716 34.0395 25.6133 36.553 24.0901 37.9174C22.4219 39.4255 20.9712 39.8564 20.9712 39.9282C20.9712 40 20.9712 40 20.8987 40Z" fill="#1E81CE"/>
<path d="M40.8441 29.228H31.4875C31.2706 29.228 31.0523 29.0126 31.0523 28.7971C31.0523 28.5817 31.2706 28.3663 31.4875 28.3663H39.1758C37.0724 27.0018 35.7668 25.2783 34.462 23.6266C34.0261 23.0521 33.5191 22.4776 33.0839 21.9031C32.9381 21.7594 32.9381 21.6158 33.0106 21.4004C33.0839 21.2567 33.2282 21.1131 33.4458 21.1131H38.523C36.6372 19.8205 35.4042 18.3124 34.2437 16.8043C33.8085 16.2298 33.3733 15.6553 32.8656 15.0808C32.7205 14.9372 32.7205 14.7935 32.7931 14.5781C32.8656 14.4345 33.0107 14.2908 33.2282 14.2908H37.3625C34.5338 12.4955 32.6487 9.98203 31.4875 8.11488C30.6904 6.82224 30.1826 5.67323 29.82 4.88328C29.3848 5.88867 28.6595 7.54038 27.644 9.19209C26.1209 11.6337 24.5252 13.3573 22.857 14.2908H26.9913C27.1363 14.2908 27.2814 14.3627 27.4264 14.5063C27.499 14.6499 27.499 14.8653 27.4264 14.9372C27.2814 15.1526 27.1363 15.368 26.9913 15.5835C25.4681 17.6661 23.9449 19.8205 21.914 21.0413H26.9187C27.0638 21.0413 27.2088 21.1131 27.3539 21.2567C27.4264 21.4004 27.4264 21.6158 27.3539 21.6876C27.2088 21.8312 27.1363 22.0467 26.9913 22.1903C26.7011 22.6212 26.411 23.0521 26.0483 23.483C25.9033 23.6984 25.6131 23.6984 25.3956 23.5548C25.178 23.4111 25.178 23.1239 25.323 22.9084C25.6132 22.5494 25.8307 22.1903 26.1209 21.8312H19.1586C18.941 21.8312 18.7227 21.6158 18.7227 21.4004C18.7227 21.1849 18.8684 20.9695 19.1586 20.8977C22.3492 20.6104 24.3801 17.7379 26.3385 15.009H20.3916C20.174 15.009 19.9564 14.7935 19.9564 14.5781C19.9564 14.3627 20.1008 14.1472 20.3916 14.0754C26.1209 13.5009 29.6742 3.3752 29.6742 3.23157C29.7475 3.01613 29.8925 2.94432 30.1101 2.94432C30.3277 2.94432 30.4728 3.08795 30.5446 3.23157C30.5446 3.30338 32.9381 10.772 39.5385 14.0754C39.7561 14.1472 39.8286 14.3627 39.7561 14.5781C39.6836 14.7935 39.5385 14.9372 39.3209 14.9372H34.462C34.7514 15.2962 34.969 15.5835 35.2591 15.9425C36.6372 17.7379 38.0153 19.5332 40.699 20.8977C40.9166 20.9695 40.9891 21.1849 40.9166 21.4004C40.8441 21.6158 40.699 21.7594 40.4814 21.7594H34.6789C34.969 22.1185 35.2591 22.4776 35.4767 22.7648C36.9999 24.7038 38.5231 26.6427 41.3518 28.079C41.5687 28.1508 41.6419 28.3663 41.5687 28.5817C41.2793 29.0844 41.0617 29.228 40.8441 29.228Z" fill="#1E81CE"/>
<path d="M19.5207 36.4094H3.20179C2.98419 36.4094 2.7666 36.194 2.7666 35.9785C2.7666 35.7631 2.98419 35.5477 3.20179 35.5477H19.5207C19.7383 35.5477 19.9559 35.7631 19.9559 35.9785C20.0277 36.194 19.8108 36.4094 19.5207 36.4094Z" fill="#1E81CE"/>
<path d="M15.4587 34.614H4.57972C4.36213 34.614 4.14453 34.3986 4.14453 34.1831C4.14453 33.9677 4.36213 33.7523 4.57972 33.7523H15.4587C15.6763 33.7523 15.8939 33.9677 15.8939 34.1831C15.8939 34.3986 15.7489 34.614 15.4587 34.614Z" fill="#1E81CE"/>
<path d="M8.35137 2.01082C6.32048 2.9444 5.01491 4.95517 5.01491 7.2532C5.01491 10.4848 7.62604 13.0701 10.8892 13.0701C13.2103 13.0701 15.2411 11.7774 16.1841 9.76667C15.3862 10.1257 14.5158 10.3412 13.5729 10.3412C10.3097 10.3412 7.69858 7.7559 7.69858 4.52429C7.77039 3.66253 7.98871 2.80077 8.35137 2.01082ZM10.9618 14.0037C7.19085 14.0037 4.14453 10.9875 4.14453 7.2532C4.14453 4.09341 6.32048 1.43631 9.3668 0.718181C9.58368 0.646367 9.72946 0.718181 9.87453 0.933621C9.94634 1.07725 9.94634 1.29269 9.87453 1.43631C9.14849 2.29808 8.71331 3.44709 8.71331 4.59611C8.71331 7.32501 10.9618 9.55123 13.718 9.55123C14.8785 9.55123 15.9665 9.12035 16.9094 8.40222C17.0544 8.25859 17.272 8.25859 17.4171 8.40222C17.5622 8.47403 17.6347 8.68947 17.6347 8.90491C16.8368 11.8493 14.0806 14.0037 10.9618 14.0037Z" fill="#1E81CE"/>
<path d="M17.4186 40C17.3461 40 17.2735 40 17.201 39.9282C16.9834 39.7846 16.9109 39.4973 17.0559 39.2819L27.8624 23.1238C27.935 22.9802 28.08 22.9084 28.2251 22.9084C28.3701 22.9084 28.5152 22.9802 28.5877 23.1238L31.9235 28.5099L38.5964 39.2819C38.6689 39.4255 38.6689 39.5691 38.5964 39.7127C38.5238 39.8564 38.3788 39.9282 38.2337 39.9282H28.1525C27.935 39.9282 27.7174 39.7127 27.7174 39.4973C27.7174 39.2819 27.935 39.0664 28.1525 39.0664H37.2908L31.0531 29.0125L28.08 24.2011L17.7813 39.7846C17.7087 39.9282 17.5637 40 17.4186 40Z" fill="#1E81CE"/>
<path d="M1.38932 39.1382H27.7168V23.842H12.5592L1.38932 39.1382ZM28.152 40H0.518937C0.373874 40 0.229533 39.9282 0.0837522 39.7846C-0.0613109 39.6409 0.0112207 39.4255 0.0837522 39.2819L11.8331 23.1238C11.9057 22.9802 12.0507 22.9084 12.1958 22.9084H28.0795C28.2971 22.9084 28.5147 23.1238 28.5147 23.3393V39.4973C28.5872 39.7846 28.4422 40 28.152 40Z" fill="#1E81CE"/>
<path d="M3.71128 20.6824C2.69584 20.6824 1.89799 21.4724 1.89799 22.4778C1.89799 23.4831 2.69584 24.2731 3.71128 24.2731C4.72672 24.2731 5.52457 23.4831 5.52457 22.4778C5.52457 21.5442 4.65419 20.6824 3.71128 20.6824ZM3.71128 25.2067C2.18811 25.2067 0.955078 23.9858 0.955078 22.4778C0.955078 20.9697 2.18811 19.7488 3.71128 19.7488C5.23444 19.7488 6.46748 20.9697 6.46748 22.4778C6.39494 23.9858 5.16191 25.2067 3.71128 25.2067Z" fill="#1E81CE"/>
<path d="M24.0898 0.933574C22.8568 0.933574 21.8413 1.93896 21.8413 3.15979C21.8413 4.38062 22.8568 5.38601 24.0898 5.38601C25.3229 5.38601 26.3383 4.38062 26.3383 3.15979C26.3383 1.93896 25.3229 0.933574 24.0898 0.933574ZM24.0898 6.31958C22.3491 6.31958 20.8984 4.88331 20.8984 3.15979C20.8984 1.43627 22.3491 0 24.0898 0C25.8306 0 27.2812 1.43627 27.2812 3.15979C27.2812 4.88331 25.8306 6.31958 24.0898 6.31958Z" fill="#1E81CE"/>
</svg>
